# xmcd CD database file
#
# Track frame offsets:
#	150
#	18352
#	39055
#
# Disc length: 661 seconds
#
# Revision: 0
# Processed by: cddbd v1.5.1PL0 Copyright (c) Steve Scherf et al.
# Submitted via: CDex 1.51
#
DISCID=13029303
DTITLE=Lene Marlin - UNFORGIVABLE SINNER [single]
DYEAR=1900
DGENRE=Rock
TTITLE0=UNFORGIVABLE SINNER
TTITLE1=Maybe I'll go
TTITLE2=I know
EXTD=
EXTT0=
EXTT1=
EXTT2=
PLAYORDER=
